PathFileType	4	(X/Y/Z)	./resultDataOpenSim/trcMotMarkerGrf/sub10/qtm-05-05.trc
DataRate	CameraRate	NumFrames	NumMarkers	Units	OrigDataRate	OrigDataStartFrame	OrigNumFrames
250.000000	250.000000	9	24	m	250.000000	130	517
Frame#	Time	L.Toe.Tip			R.Toe.Tip			L.Ankle.Lat			R.Ankle.Lat			L.Ankle.Med			R.Ankle.Med			L.Heel			R.Heel			L.Knee.Lat			R.Knee.Lat			L.Knee.Med			R.Knee.Med			L.Thigh.Upper			R.Thigh.Upper			L.ASIS			R.ASIS			V.Sacral			L.Acromium			R.Acromium			C7			L.Elbow			R.Elbow			L.Wrist.Lat			R.Wrist.Lat
		X1	Y1	Z1	X2	Y2	Z2	X3	Y3	Z3	X4	Y4	Z4	X5	Y5	Z5	X6	Y6	Z6	X7	Y7	Z7	X8	Y8	Z8	X9	Y9	Z9	X10	Y10	Z10	X11	Y11	Z11	X12	Y12	Z12	X13	Y13	Z13	X14	Y14	Z14	X15	Y15	Z15	X16	Y16	Z16	X17	Y17	Z17	X18	Y18	Z18	X19	Y19	Z19	X20	Y20	Z20	X21	Y21	Z21	X22	Y22	Z22	X23	Y23	Z23	X24	Y24	Z24

130	0.516	-0.43361916	0.068957825	-0.15624735	-0.73743526	0.039570343	0.029573088	-0.56568292	0.10298901	-0.15833092	-0.88172241	0.05359202	0.059528017	-0.54410871	0.11855806	-0.077365815	-0.85728738	0.082981668	-0.021381415	-0.62346525	0.072306293	-0.10392461	-0.92830478	0.030633438	0.0073738248	-0.49467696	0.48707998	-0.16836635	-0.78451151	0.44698222	0.11452092	-0.4708578	0.45868568	-0.051446748	-0.7679422	0.44882676	-0.01478274	-0.64667716	0.83613258	-0.2116987	-0.71717813	0.8566909	0.16794694	-0.60467913	0.94224895	-0.13869986	-0.62644922	0.94415804	0.10553657	-0.81461837	0.95882985	-0.039024216	-0.67875156	1.4129285	-0.18240995	-0.66948946	1.4190517	0.13957842	-0.75495468	1.4430851	-0.0242805	-0.80996058	1.0932053	-0.21934402	-0.71215836	1.0718743	0.22008547	-0.6848751	0.88350021	-0.26459408	-0.53807444	0.89844715	0.24035816
131	0.52	-0.41626453	0.068690772	-0.15357474	-0.73748765	0.03963679	0.029528512	-0.54904801	0.10012083	-0.15750851	-0.8817308	0.053583372	0.059279393	-0.52875283	0.11668863	-0.076167001	-0.85720689	0.082882303	-0.021684968	-0.60667332	0.068666419	-0.10343916	-0.92822417	0.03067196	0.0065905414	-0.48797477	0.48614902	-0.16812498	-0.78318931	0.44670003	0.11434853	-0.46448654	0.45832425	-0.051015309	-0.76622354	0.44832309	-0.015171958	-0.6405977	0.83542693	-0.2115952	-0.71390653	0.85590318	0.16777631	-0.59874915	0.94127522	-0.13823914	-0.62225161	0.94312584	0.10596117	-0.80935098	0.95784837	-0.040007173	-0.6739196	1.4119657	-0.18223571	-0.66487377	1.4181971	0.13978293	-0.75013978	1.4421357	-0.024177787	-0.8059731	1.0925691	-0.21956679	-0.70533737	1.0705949	0.22034959	-0.68176623	0.88233084	-0.26497859	-0.5290478	0.89909786	0.23939967
132	0.524	-0.39896398	0.06841721	-0.15061765	-0.73763446	0.039629829	0.029414343	-0.53238968	0.0974417	-0.15674871	-0.88174528	0.053586457	0.059037157	-0.51346663	0.11499694	-0.075064499	-0.85712626	0.082802355	-0.022027349	-0.5899357	0.065279465	-0.10304862	-0.92821559	0.030641596	0.0060650095	-0.48134236	0.48511775	-0.16792126	-0.78176931	0.44640106	0.11416231	-0.45827883	0.45787211	-0.050608257	-0.76444951	0.44778363	-0.015566081	-0.63449627	0.83464698	-0.21149837	-0.71056671	0.85513356	0.16752603	-0.59279691	0.94025676	-0.13776012	-0.6180412	0.9420501	0.10637303	-0.80401449	0.95677047	-0.040917915	-0.66910487	1.4109449	-0.18206916	-0.66025846	1.4172676	0.13998403	-0.74530912	1.441135	-0.024081879	-0.80194485	1.0918796	-0.21988799	-0.69851731	1.0692608	0.22058354	-0.67862864	0.88111653	-0.26536603	-0.52010441	0.89971683	0.23842786
133	0.528	-0.38175188	0.068121686	-0.14737204	-0.73778366	0.039579163	0.029314735	-0.5157295	0.094963211	-0.15602756	-0.88177725	0.053600618	0.058808489	-0.49823319	0.11346175	-0.07406357	-0.85701508	0.082734167	-0.022373511	-0.57328235	0.062114605	-0.10277964	-0.92836067	0.030565887	0.0059490947	-0.47474578	0.48399129	-0.16776267	-0.78025924	0.446071	0.11394454	-0.45219678	0.45730789	-0.05018699	-0.76267537	0.44722051	-0.015929381	-0.62827945	0.83380109	-0.21139888	-0.70719485	0.85438098	0.16726192	-0.58680528	0.93918059	-0.13723824	-0.61382983	0.94093616	0.10677371	-0.79849203	0.95564202	-0.041918609	-0.66419001	1.40986	-0.18188717	-0.65562037	1.4162639	0.14017351	-0.7404635	1.4400815	-0.023991558	-0.7978165	1.0911375	-0.22021594	-0.69170666	1.0678737	0.22079303	-0.67546555	0.87986131	-0.26575868	-0.51122513	0.90029381	0.23740701
134	0.532	-0.36467834	0.067766332	-0.14386309	-0.73788611	0.039530175	0.029270613	-0.49911841	0.092657486	-0.15529406	-0.88183474	0.053620233	0.058601482	-0.48308121	0.11207162	-0.073143663	-0.85689207	0.082653658	-0.022691758	-0.55671095	0.05915555	-0.10258254	-0.92862266	0.03047946	0.006141477	-0.46814049	0.48278112	-0.1676648	-0.77867496	0.44569914	0.11369018	-0.44618906	0.45662008	-0.049703553	-0.7608844	0.44664745	-0.016258602	-0.62190547	0.83290246	-0.21129089	-0.7038123	0.85363164	0.16703225	-0.58078839	0.93803828	-0.13667881	-0.60961681	0.93979047	0.10715805	-0.79275856	0.95448726	-0.043011642	-0.65911548	1.4087166	-0.18168487	-0.65096453	1.4151957	0.14036035	-0.7356032	1.4389748	-0.02390802	-0.79339644	1.0903455	-0.22016613	-0.68490759	1.0664336	0.22097978	-0.6722826	0.87856388	-0.26615402	-0.50238627	0.90083527	0.23634617
135	0.536	-0.34779519	0.06731524	-0.14013906	-0.73794586	0.039504655	0.029274079	-0.4826234	0.090487256	-0.1545181	-0.88190329	0.053636086	0.058404335	-0.46803457	0.11082051	-0.072279435	-0.85678396	0.08254638	-0.02296968	-0.5402806	0.056430787	-0.1024516	-0.92885634	0.030417922	0.0063063541	-0.46149474	0.48150103	-0.1676368	-0.77704937	0.4452836	0.11340086	-0.44024534	0.45581226	-0.049163617	-0.75902	0.44606591	-0.016563256	-0.61536112	0.83196944	-0.21117487	-0.70040323	0.85285956	0.16683095	-0.57476199	0.93683148	-0.13610054	-0.60539741	0.93861474	0.10751756	-0.78695174	0.95331675	-0.044090852	-0.65395585	1.4075265	-0.18148307	-0.64631792	1.4140749	0.14055955	-0.73072796	1.4378173	-0.023831465	-0.78859801	1.0894994	-0.21949397	-0.67811458	1.0649392	0.22113932	-0.66908411	0.87721898	-0.26654723	-0.49357021	0.90135596	0.2352808
136	0.54	-0.33114193	0.066751015	-0.13626064	-0.73798796	0.039492074	0.029296895	-0.46628502	0.088436464	-0.15370353	-0.88195269	0.053647455	0.05819735	-0.45308869	0.10971123	-0.071437298	-0.85669362	0.082418338	-0.023217924	-0.52408813	0.053991781	-0.1024827	-0.92896256	0.030396234	0.0062196673	-0.45480475	0.48015731	-0.16766186	-0.77539799	0.44482965	0.113082	-0.43444249	0.4548856	-0.048667083	-0.75702222	0.44546083	-0.016849458	-0.60871274	0.83100258	-0.21105455	-0.69693651	0.85204684	0.16661833	-0.56872851	0.93557103	-0.1355144	-0.60117313	0.93740872	0.10785117	-0.78126631	0.95212855	-0.045123667	-0.64879748	1.4063039	-0.18131228	-0.64168746	1.4129107	0.14077172	-0.72583613	1.4366131	-0.023761325	-0.78366991	1.0885914	-0.21857298	-0.67132191	1.0633907	0.22126724	-0.66587125	0.8758206	-0.26693433	-0.4847864	0.90185749	0.23422456
137	0.544	-0.31474679	0.06607034	-0.1322969	-0.73803557	0.039460472	0.0293107	-0.450119	0.086500287	-0.15287239	-0.88196388	0.053668612	0.057987503	-0.43822741	0.1087526	-0.070584267	-0.85660701	0.082282046	-0.023457219	-0.50819657	0.051868513	-0.10280622	-0.92896587	0.030405764	0.0059376696	-0.44810631	0.47874394	-0.16769111	-0.77366785	0.444347	0.11275	-0.42888909	0.45382196	-0.048334525	-0.75485487	0.4448188	-0.017117778	-0.60213174	0.82997219	-0.21093492	-0.69340333	0.8511998	0.16637036	-0.56267779	0.93427233	-0.13492043	-0.59694619	0.93617301	0.10816362	-0.77574746	0.95090183	-0.046150592	-0.64362698	1.4050693	-0.18118803	-0.63704732	1.411707	0.14098362	-0.72092502	1.4353673	-0.023697618	-0.77896384	1.0876198	-0.21802291	-0.66453119	1.0617917	0.221365	-0.66264397	0.8743655	-0.26731068	-0.47606282	0.9023234	0.2331628
138	0.548	-0.29863464	0.065278449	-0.12830789	-0.7380948	0.039381031	0.029304225	-0.43412917	0.084678022	-0.15204908	-0.88193519	0.053712817	0.05779863	-0.42346422	0.10793199	-0.069721886	-0.85651107	0.08214541	-0.023703765	-0.49259914	0.050047197	-0.10342003	-0.92893534	0.030434115	0.0056177896	-0.44144755	0.47725152	-0.16767556	-0.77176276	0.44384533	0.11242667	-0.42359395	0.4525958	-0.048186234	-0.75251561	0.44413992	-0.017370334	-0.5957455	0.82884655	-0.21081625	-0.68983032	0.85034445	0.16610434	-0.5565967	0.93294866	-0.13432176	-0.59271336	0.93491145	0.10845914	-0.77029273	0.94961021	-0.047193035	-0.63841898	1.4038245	-0.18109975	-0.632373	1.410456	0.14118645	-0.71599388	1.4340833	-0.023641845	-0.77456032	1.0865921	-0.21803332	-0.65774849	1.0601461	0.22143731	-0.65940268	0.87285505	-0.26767086	-0.46740808	0.90274203	0.23208242
